<svg width="510" height="54" viewBox="0 0 510 54" fill="none" xmlns="http://www.w3.org/2000/svg">
<path d="M29.904 2.016C30.6133 2.016 31.2853 2.072 31.92 2.184C32.5547 2.296 33.0773 2.65067 33.488 3.248C33.936 3.84534 34.16 4.872 34.16 6.328C34.16 7.74667 33.936 8.77334 33.488 9.40801C33.0773 10.0053 32.536 10.36 31.864 10.472C31.2293 10.584 30.5573 10.64 29.848 10.64H22.12V36.288C22.12 37.1093 22.0453 37.912 21.896 38.696C21.7467 39.4427 21.3173 40.0587 20.608 40.544C19.936 41.0293 18.7413 41.272 17.024 41.272C15.3813 41.272 14.2053 41.0293 13.496 40.544C12.7867 40.0213 12.3573 39.3867 12.208 38.64C12.096 37.856 12.04 37.0533 12.04 36.232V10.64H4.256C3.584 10.64 2.912 10.584 2.24 10.472C1.60533 10.3227 1.064 9.94934 0.616 9.352C0.205333 8.75467 -1.19209e-07 7.728 -1.19209e-07 6.272C-1.19209e-07 4.85334 0.205333 3.84534 0.616 3.248C1.064 2.65067 1.624 2.296 2.296 2.184C2.968 2.072 3.64 2.016 4.312 2.016H29.904ZM42.1483 41.272C40.4683 41.272 39.2736 41.0293 38.5643 40.544C37.855 40.0213 37.4256 39.368 37.2763 38.584C37.1643 37.8 37.1083 36.9973 37.1083 36.176V5.04C37.1083 4.18134 37.183 3.37867 37.3323 2.632C37.4816 1.848 37.911 1.21334 38.6203 0.728004C39.3296 0.24267 40.5243 2.86102e-06 42.2043 2.86102e-06C43.8843 2.86102e-06 45.0603 0.261336 45.7323 0.784003C46.4416 1.26934 46.871 1.904 47.0203 2.688C47.1696 3.43467 47.2443 4.23734 47.2443 5.096V15.288C47.8043 14.7653 48.551 14.2427 49.4843 13.72C50.455 13.16 51.575 12.88 52.8443 12.88C55.2336 12.88 57.3803 13.5147 59.2843 14.784C61.1883 16.016 62.7003 17.696 63.8203 19.824C64.9403 21.952 65.5003 24.36 65.5003 27.048V36.232C65.5003 37.0533 65.4256 37.856 65.2763 38.64C65.127 39.3867 64.6976 40.0213 63.9883 40.544C63.3163 41.0293 62.1216 41.272 60.4043 41.272C58.7616 41.272 57.567 41.0293 56.8203 40.544C56.111 40.0587 55.6816 39.424 55.5323 38.64C55.383 37.856 55.3083 37.016 55.3083 36.12V26.992C55.3083 26.1707 55.159 25.48 54.8603 24.92C54.5616 24.3227 54.1323 23.856 53.5723 23.52C53.0123 23.184 52.3403 23.016 51.5563 23.016C50.5483 23.016 49.615 23.3333 48.7563 23.968C47.8976 24.6027 47.3936 25.3307 47.2443 26.152V36.232C47.2443 37.0533 47.1696 37.856 47.0203 38.64C46.871 39.424 46.4416 40.0587 45.7323 40.544C45.0603 41.0293 43.8656 41.272 42.1483 41.272ZM83.783 41.888C80.983 41.888 78.6123 41.44 76.671 40.544C74.7297 39.6107 73.1617 38.416 71.967 36.96C70.7723 35.4667 69.895 33.8613 69.335 32.144C68.775 30.4267 68.495 28.7653 68.495 27.16C68.495 24.2107 69.1483 21.616 70.455 19.376C71.7617 17.136 73.5723 15.3813 75.887 14.112C78.2017 12.8427 80.8523 12.208 83.839 12.208C86.1537 12.208 88.1323 12.5813 89.775 13.328C91.4177 14.0747 92.743 15.0267 93.751 16.184C94.7963 17.3413 95.5617 18.5733 96.047 19.88C96.5323 21.1867 96.775 22.4 96.775 23.52C96.775 25.648 96.2523 27.272 95.207 28.392C94.1617 29.512 92.8177 30.072 91.175 30.072H79.247C79.3963 30.6693 79.695 31.192 80.143 31.64C80.6283 32.0507 81.2257 32.3867 81.935 32.648C82.6443 32.872 83.4097 32.984 84.231 32.984C85.0523 32.984 85.7803 32.9467 86.415 32.872C87.0497 32.76 87.591 32.6293 88.039 32.48C88.5243 32.3307 88.9537 32.1813 89.327 32.032C89.7377 31.8827 90.0923 31.7707 90.391 31.696C90.727 31.584 91.0443 31.528 91.343 31.528C92.015 31.528 92.631 31.752 93.191 32.2C93.751 32.648 94.255 33.32 94.703 34.216C94.9643 34.7013 95.151 35.168 95.263 35.616C95.375 36.0267 95.431 36.4187 95.431 36.792C95.431 37.912 94.9643 38.8453 94.031 39.592C93.135 40.3387 91.8283 40.8987 90.111 41.272C88.3937 41.6827 86.2843 41.888 83.783 41.888ZM79.247 24.808H85.519C86.0417 24.808 86.415 24.696 86.639 24.472C86.9003 24.248 87.031 23.912 87.031 23.464C87.031 22.9787 86.8817 22.568 86.583 22.232C86.3217 21.896 85.9483 21.6533 85.463 21.504C84.9777 21.3173 84.399 21.224 83.727 21.224C82.831 21.224 82.047 21.4107 81.375 21.784C80.703 22.12 80.1803 22.568 79.807 23.128C79.471 23.6507 79.2843 24.2107 79.247 24.808ZM104.904 41.272C103.224 41.272 102.029 41.0293 101.32 40.544C100.61 40.0213 100.181 39.368 100.032 38.584C99.9198 37.7627 99.8638 36.9413 99.8638 36.12V17.864C99.8638 17.0053 99.9384 16.2027 100.088 15.456C100.237 14.672 100.666 14.0373 101.376 13.552C102.085 13.0667 103.28 12.824 104.96 12.824C106.602 12.824 107.76 13.048 108.432 13.496C109.141 13.944 109.57 14.448 109.72 15.008C109.869 15.5307 109.944 15.9413 109.944 16.24L109.048 15.904C109.048 15.904 109.197 15.736 109.496 15.4C109.794 15.064 110.224 14.672 110.784 14.224C111.381 13.776 112.072 13.384 112.856 13.048C113.677 12.712 114.592 12.544 115.6 12.544C115.936 12.544 116.346 12.5813 116.832 12.656C117.354 12.6933 117.896 12.7867 118.456 12.936C119.053 13.0853 119.594 13.3093 120.08 13.608C120.602 13.9067 121.013 14.2987 121.312 14.784C121.648 15.2693 121.816 15.8667 121.816 16.576C121.816 18.4427 121.405 20.0293 120.584 21.336C119.8 22.6427 118.754 23.296 117.448 23.296C116.738 23.296 116.234 23.2587 115.936 23.184C115.637 23.072 115.413 22.9787 115.264 22.904C115.152 22.792 115.002 22.6987 114.816 22.624C114.666 22.512 114.368 22.456 113.92 22.456C113.36 22.456 112.837 22.5307 112.352 22.68C111.904 22.792 111.493 22.9787 111.12 23.24C110.784 23.5013 110.522 23.8187 110.336 24.192C110.149 24.528 110.056 24.9013 110.056 25.312V36.232C110.056 37.0533 109.981 37.856 109.832 38.64C109.682 39.424 109.253 40.0587 108.544 40.544C107.834 41.0293 106.621 41.272 104.904 41.272ZM145.636 41.16C143.956 41.16 142.706 40.88 141.884 40.32C141.1 39.76 140.727 39.1253 140.764 38.416H141.548C141.362 38.6773 140.988 39.032 140.428 39.48C139.906 39.8907 139.196 40.2827 138.3 40.656C137.404 40.992 136.303 41.16 134.996 41.16C133.316 41.16 131.692 40.7867 130.124 40.04C128.594 39.256 127.212 38.192 125.98 36.848C124.786 35.504 123.834 33.992 123.124 32.312C122.415 30.5947 122.06 28.8027 122.06 26.936C122.06 25.1067 122.415 23.352 123.124 21.672C123.834 19.992 124.804 18.4987 126.036 17.192C127.268 15.848 128.65 14.8027 130.18 14.056C131.711 13.272 133.316 12.88 134.996 12.88C136.266 12.88 137.33 13.0667 138.188 13.44C139.084 13.8133 139.794 14.224 140.316 14.672C140.876 15.12 141.25 15.4933 141.436 15.792H140.82C140.783 14.8587 141.156 14.1307 141.94 13.608C142.762 13.0853 144.012 12.824 145.692 12.824C147.372 12.824 148.548 13.0853 149.22 13.608C149.93 14.0933 150.359 14.728 150.508 15.512C150.658 16.296 150.732 17.0987 150.732 17.92V36.12C150.732 36.9413 150.658 37.744 150.508 38.528C150.359 39.312 149.93 39.9467 149.22 40.432C148.548 40.9173 147.354 41.16 145.636 41.16ZM136.396 31.024C137.106 31.024 137.74 30.8373 138.3 30.464C138.898 30.0907 139.364 29.6053 139.7 29.008C140.074 28.3733 140.26 27.7013 140.26 26.992C140.26 26.2453 140.074 25.5733 139.7 24.976C139.364 24.3787 138.898 23.8933 138.3 23.52C137.703 23.1467 137.031 22.96 136.284 22.96C135.538 22.96 134.847 23.1467 134.212 23.52C133.615 23.8933 133.13 24.3973 132.756 25.032C132.383 25.6293 132.196 26.3013 132.196 27.048C132.196 27.7573 132.383 28.4107 132.756 29.008C133.167 29.6053 133.69 30.0907 134.324 30.464C134.959 30.8373 135.65 31.024 136.396 31.024ZM169.752 40.6C167.923 40.6 166.336 40.2267 164.992 39.48C163.648 38.7333 162.547 37.7253 161.688 36.456C160.83 35.1493 160.195 33.6747 159.784 32.032C159.374 30.3893 159.187 28.6533 159.224 26.824C159.262 25.032 159.486 23.296 159.896 21.616C160.344 19.936 160.998 18.4427 161.856 17.136C162.715 15.8293 163.798 14.8027 165.104 14.056C166.411 13.272 167.96 12.88 169.752 12.88C171.395 12.88 172.982 13.272 174.512 14.056C176.08 14.84 177.48 15.904 178.712 17.248C179.944 18.5547 180.915 20.048 181.624 21.728C182.334 23.408 182.688 25.144 182.688 26.936C182.688 28.8027 182.334 30.576 181.624 32.256C180.915 33.8987 179.944 35.3547 178.712 36.624C177.518 37.856 176.136 38.8267 174.568 39.536C173.038 40.2453 171.432 40.6 169.752 40.6ZM159.392 53.144C157.75 53.144 156.574 52.9013 155.864 52.416C155.155 51.9307 154.726 51.3147 154.576 50.568C154.464 49.8213 154.408 49.0373 154.408 48.216V17.808C154.408 16.9867 154.464 16.2027 154.576 15.456C154.726 14.7093 155.136 14.0933 155.808 13.608C156.518 13.0853 157.694 12.824 159.336 12.824C160.643 12.824 161.726 13.0107 162.584 13.384C163.443 13.72 164.059 14.2613 164.432 15.008V48.16C164.507 48.9813 164.451 49.7653 164.264 50.512C164.115 51.296 163.686 51.9307 162.976 52.416C162.267 52.9013 161.072 53.144 159.392 53.144ZM168.408 31.08C169.155 31.08 169.827 30.8933 170.424 30.52C171.059 30.1467 171.563 29.6613 171.936 29.064C172.31 28.4293 172.496 27.7573 172.496 27.048C172.496 26.3013 172.31 25.6293 171.936 25.032C171.6 24.3973 171.115 23.912 170.48 23.576C169.883 23.2027 169.211 23.016 168.464 23.016C167.718 23.016 167.027 23.2027 166.392 23.576C165.795 23.9493 165.31 24.4347 164.936 25.032C164.6 25.6293 164.432 26.3013 164.432 27.048C164.432 27.7573 164.619 28.4293 164.992 29.064C165.366 29.6613 165.851 30.1467 166.448 30.52C167.046 30.8933 167.699 31.08 168.408 31.08ZM192.698 52.752C190.868 51.9307 189.804 51.016 189.506 50.008C189.207 49.0373 189.45 47.7493 190.234 46.144L203.842 15.68C204.626 13.9253 205.466 12.88 206.362 12.544C207.258 12.208 208.639 12.4133 210.506 13.16C212.298 13.9813 213.343 14.8587 213.642 15.792C213.978 16.7253 213.791 17.976 213.082 19.544L199.362 50.288C198.615 52.0427 197.775 53.088 196.842 53.424C195.946 53.7973 194.564 53.5733 192.698 52.752ZM197.234 40.432L183.906 20.272C182.935 18.7787 182.543 17.5467 182.73 16.576C182.916 15.568 183.812 14.56 185.418 13.552C187.172 12.4693 188.516 12.0587 189.45 12.32C190.42 12.544 191.41 13.4213 192.418 14.952L201.49 28.672L197.234 40.432ZM236.046 41.272C235.075 41.272 234.347 41.104 233.862 40.768C233.377 40.4693 233.059 40.0587 232.91 39.536C232.761 39.0133 232.686 38.4533 232.686 37.856V5.488C232.686 4.89067 232.742 4.34934 232.854 3.864C233.003 3.34134 233.321 2.93067 233.806 2.632C234.291 2.296 235.057 2.128 236.102 2.128L246.63 2.184C249.355 2.184 251.857 2.65067 254.134 3.584C256.449 4.51734 258.446 5.84267 260.126 7.56C261.806 9.27734 263.094 11.3307 263.99 13.72C264.923 16.072 265.39 18.6667 265.39 21.504C265.39 24.416 264.923 27.0853 263.99 29.512C263.057 31.9387 261.75 34.0293 260.07 35.784C258.39 37.5387 256.393 38.9013 254.078 39.872C251.801 40.8053 249.262 41.272 246.462 41.272H236.046ZM239.462 34.496H246.63C249.019 34.496 251.11 33.9733 252.902 32.928C254.694 31.8453 256.075 30.352 257.046 28.448C258.054 26.544 258.558 24.3227 258.558 21.784C258.558 19.208 258.054 16.968 257.046 15.064C256.075 13.1227 254.675 11.6293 252.846 10.584C251.054 9.50134 248.963 8.96 246.574 8.96H239.462V34.496ZM294.213 41.216C293.13 41.216 292.327 41.0107 291.805 40.6C291.282 40.1893 291.021 39.6293 291.021 38.92L291.413 37.072C291.114 37.5573 290.61 38.136 289.901 38.808C289.191 39.4427 288.258 40.0213 287.101 40.544C285.943 41.0293 284.543 41.272 282.901 41.272C281.146 41.272 279.485 40.9173 277.917 40.208C276.386 39.4613 275.023 38.4533 273.829 37.184C272.671 35.8773 271.738 34.4027 271.029 32.76C270.357 31.08 270.021 29.288 270.021 27.384C270.021 25.5547 270.357 23.8373 271.029 22.232C271.738 20.5893 272.69 19.1333 273.885 17.864C275.079 16.5947 276.442 15.6053 277.973 14.896C279.541 14.1493 281.183 13.776 282.901 13.776C284.431 13.776 285.719 13.9813 286.765 14.392C287.847 14.8027 288.762 15.3253 289.509 15.96C290.255 16.5573 290.871 17.192 291.357 17.864L291.021 16.24C291.021 15.4187 291.282 14.8027 291.805 14.392C292.327 13.944 293.149 13.72 294.269 13.72C295.314 13.72 296.061 13.888 296.509 14.224C296.957 14.5227 297.237 14.952 297.349 15.512C297.461 16.0347 297.517 16.632 297.517 17.304V37.8C297.517 38.4347 297.461 39.0133 297.349 39.536C297.237 40.0587 296.938 40.4693 296.453 40.768C296.005 41.0667 295.258 41.216 294.213 41.216ZM283.909 34.72C285.178 34.72 286.317 34.4027 287.325 33.768C288.333 33.1333 289.135 32.2747 289.733 31.192C290.367 30.072 290.685 28.84 290.685 27.496C290.685 26.04 290.367 24.7707 289.733 23.688C289.098 22.6053 288.258 21.7653 287.213 21.168C286.205 20.5333 285.066 20.216 283.797 20.216C282.415 20.216 281.183 20.552 280.101 21.224C279.018 21.8587 278.159 22.736 277.525 23.856C276.927 24.9387 276.629 26.1707 276.629 27.552C276.629 28.896 276.946 30.1093 277.581 31.192C278.215 32.2747 279.074 33.1333 280.157 33.768C281.277 34.4027 282.527 34.72 283.909 34.72ZM313.271 41.664C312.301 41.664 311.274 41.552 310.191 41.328C309.109 41.1413 308.063 40.8613 307.055 40.488C306.047 40.0773 305.17 39.6107 304.423 39.088C303.714 38.528 303.266 37.912 303.079 37.24C302.93 36.8667 302.874 36.512 302.911 36.176C302.949 35.8027 303.061 35.4293 303.247 35.056C303.434 34.6453 303.714 34.2347 304.087 33.824C304.423 33.4133 304.759 33.1893 305.095 33.152C305.469 33.0773 305.935 33.1893 306.495 33.488C306.981 33.6747 307.503 33.9173 308.063 34.216C308.661 34.5147 309.258 34.8133 309.855 35.112C310.49 35.4107 311.125 35.6533 311.759 35.84C312.431 36.0267 313.085 36.12 313.719 36.12C315.101 36.12 316.202 35.896 317.023 35.448C317.845 34.9627 318.255 34.2907 318.255 33.432C318.255 32.9467 318.125 32.5173 317.863 32.144C317.602 31.7707 317.247 31.472 316.799 31.248C316.389 30.9867 315.885 30.7627 315.287 30.576C314.727 30.352 314.111 30.1653 313.439 30.016C312.805 29.8293 312.133 29.624 311.423 29.4C310.49 29.1387 309.557 28.8213 308.623 28.448C307.69 28.0747 306.85 27.5893 306.103 26.992C305.394 26.3947 304.815 25.648 304.367 24.752C303.919 23.856 303.695 22.736 303.695 21.392C303.695 19.712 304.087 18.2933 304.871 17.136C305.693 15.9413 306.869 15.0267 308.399 14.392C309.93 13.7573 311.778 13.44 313.943 13.44C314.69 13.44 315.399 13.496 316.071 13.608C316.781 13.72 317.453 13.888 318.087 14.112C318.759 14.2987 319.394 14.5413 319.991 14.84C320.626 15.1387 321.223 15.4747 321.783 15.848C322.717 16.3707 323.202 16.9867 323.239 17.696C323.277 18.368 323.015 19.096 322.455 19.88C322.045 20.4027 321.634 20.776 321.223 21C320.813 21.1867 320.383 21.1867 319.935 21C319.338 20.7013 318.685 20.384 317.975 20.048C317.303 19.6747 316.594 19.3573 315.847 19.096C315.138 18.8347 314.391 18.704 313.607 18.704C312.861 18.704 312.189 18.816 311.591 19.04C310.994 19.264 310.546 19.5813 310.247 19.992C309.949 20.4027 309.799 20.888 309.799 21.448C309.799 21.9707 309.949 22.4 310.247 22.736C310.546 23.072 310.938 23.352 311.423 23.576C311.909 23.8 312.487 24.0053 313.159 24.192C313.831 24.3413 314.541 24.4907 315.287 24.64C316.333 24.864 317.397 25.144 318.479 25.48C319.562 25.816 320.551 26.2827 321.447 26.88C322.381 27.4773 323.127 28.28 323.687 29.288C324.247 30.2587 324.527 31.528 324.527 33.096C324.527 35.8213 323.519 37.9307 321.503 39.424C319.525 40.9173 316.781 41.664 313.271 41.664ZM332.983 41.328C331.937 41.328 331.172 41.16 330.687 40.824C330.239 40.5253 329.959 40.1147 329.847 39.592C329.735 39.0693 329.679 38.5093 329.679 37.912V4.48001C329.679 3.84534 329.735 3.28534 329.847 2.8C329.996 2.27734 330.295 1.86667 330.743 1.568C331.228 1.26934 331.993 1.12001 333.039 1.12001C334.084 1.12001 334.831 1.288 335.279 1.624C335.764 1.92267 336.063 2.33334 336.175 2.856C336.324 3.34134 336.399 3.90134 336.399 4.536V17.192C337.145 16.3333 338.097 15.5493 339.255 14.84C340.449 14.0933 341.887 13.72 343.567 13.72C345.844 13.72 347.879 14.28 349.671 15.4C351.463 16.4827 352.881 17.9947 353.927 19.936C354.972 21.8773 355.495 24.1547 355.495 26.768V37.968C355.495 38.5653 355.439 39.1253 355.327 39.648C355.215 40.1333 354.916 40.5253 354.431 40.824C353.983 41.1227 353.236 41.272 352.191 41.272C351.145 41.272 350.38 41.1227 349.895 40.824C349.409 40.5253 349.111 40.1333 348.999 39.648C348.887 39.1253 348.831 38.528 348.831 37.856V26.712C348.831 25.4053 348.607 24.2667 348.159 23.296C347.711 22.3253 347.039 21.5787 346.143 21.056C345.284 20.496 344.201 20.216 342.895 20.216C341.14 20.216 339.665 20.7387 338.471 21.784C337.276 22.792 336.585 24.0987 336.399 25.704V37.968C336.399 38.5653 336.324 39.1253 336.175 39.648C336.063 40.1707 335.764 40.5813 335.279 40.88C334.831 41.1787 334.065 41.328 332.983 41.328ZM364.058 41.272C363.088 41.272 362.36 41.104 361.874 40.768C361.389 40.432 361.072 39.984 360.922 39.424C360.81 38.864 360.754 38.248 360.754 37.576V5.76801C360.754 5.09601 360.829 4.49867 360.978 3.97601C361.128 3.416 361.426 2.968 361.874 2.632C362.36 2.296 363.106 2.128 364.114 2.128H378.898C381.064 2.128 382.968 2.632 384.61 3.64C386.29 4.648 387.597 5.992 388.53 7.672C389.464 9.31467 389.93 11.1253 389.93 13.104C389.93 14 389.818 14.896 389.594 15.792C389.408 16.6507 389.09 17.4533 388.642 18.2C388.232 18.9467 387.709 19.6187 387.074 20.216C387.933 20.888 388.68 21.7093 389.314 22.68C389.949 23.6507 390.416 24.7147 390.714 25.872C391.05 26.992 391.218 28.168 391.218 29.4C391.181 31.08 390.864 32.648 390.266 34.104C389.669 35.5227 388.829 36.7733 387.746 37.856C386.701 38.9387 385.469 39.7787 384.05 40.376C382.632 40.9733 381.101 41.272 379.458 41.272H364.058ZM367.53 34.664H378.898C379.981 34.664 380.933 34.4587 381.754 34.048C382.613 33.6373 383.285 33.0027 383.77 32.144C384.256 31.2853 384.498 30.1653 384.498 28.784C384.498 27.7013 384.349 26.8427 384.05 26.208C383.789 25.536 383.416 25.0133 382.93 24.64C382.482 24.2667 381.96 24.0053 381.362 23.856C380.802 23.7067 380.242 23.632 379.682 23.632C379.122 23.5947 378.6 23.576 378.114 23.576H375.538C374.568 23.576 373.858 23.352 373.41 22.904C372.962 22.4187 372.738 21.6347 372.738 20.552C372.738 19.544 372.981 18.8347 373.466 18.424C373.952 17.976 374.698 17.752 375.706 17.752H378.226C378.712 17.752 379.234 17.7333 379.794 17.696C380.392 17.6587 380.952 17.528 381.474 17.304C381.997 17.0427 382.426 16.632 382.762 16.072C383.098 15.512 383.266 14.6907 383.266 13.608C383.266 11.928 382.818 10.7147 381.922 9.968C381.064 9.184 379.57 8.792 377.442 8.792H367.53V34.664ZM409.419 41.664C407.627 41.664 405.873 41.328 404.155 40.656C402.475 39.9467 400.945 38.9573 399.563 37.688C398.219 36.4187 397.137 34.9253 396.315 33.208C395.531 31.4907 395.139 29.6053 395.139 27.552C395.139 25.5733 395.513 23.7253 396.259 22.008C397.006 20.2907 398.033 18.7787 399.339 17.472C400.646 16.1653 402.139 15.1573 403.819 14.448C405.537 13.7013 407.366 13.328 409.307 13.328C411.921 13.328 414.291 13.9627 416.419 15.232C418.547 16.464 420.246 18.144 421.516 20.272C422.785 22.4 423.419 24.808 423.419 27.496C423.419 29.624 423.027 31.5653 422.244 33.32C421.459 35.0373 420.395 36.5307 419.052 37.8C417.707 39.032 416.195 39.984 414.516 40.656C412.873 41.328 411.174 41.664 409.419 41.664ZM409.307 35.056C410.539 35.056 411.715 34.7573 412.836 34.16C413.993 33.5253 414.926 32.6293 415.635 31.472C416.382 30.3147 416.755 28.952 416.755 27.384C416.755 25.928 416.419 24.64 415.747 23.52C415.113 22.4 414.235 21.5227 413.115 20.888C411.995 20.2533 410.707 19.936 409.251 19.936C407.87 19.936 406.619 20.272 405.499 20.944C404.379 21.5787 403.483 22.4747 402.811 23.632C402.177 24.752 401.859 26.0213 401.859 27.44C401.859 29.008 402.214 30.3707 402.923 31.528C403.633 32.648 404.547 33.5253 405.667 34.16C406.825 34.7573 408.038 35.056 409.307 35.056ZM451.341 41.216C450.258 41.216 449.455 41.0107 448.933 40.6C448.41 40.1893 448.149 39.6293 448.149 38.92L448.541 37.072C448.242 37.5573 447.738 38.136 447.029 38.808C446.319 39.4427 445.386 40.0213 444.229 40.544C443.071 41.0293 441.671 41.272 440.029 41.272C438.274 41.272 436.613 40.9173 435.045 40.208C433.514 39.4613 432.151 38.4533 430.957 37.184C429.799 35.8773 428.866 34.4027 428.157 32.76C427.485 31.08 427.149 29.288 427.149 27.384C427.149 25.5547 427.485 23.8373 428.157 22.232C428.866 20.5893 429.818 19.1333 431.013 17.864C432.207 16.5947 433.57 15.6053 435.101 14.896C436.669 14.1493 438.311 13.776 440.029 13.776C441.559 13.776 442.847 13.9813 443.893 14.392C444.975 14.8027 445.89 15.3253 446.637 15.96C447.383 16.5573 447.999 17.192 448.485 17.864L448.149 16.24C448.149 15.4187 448.41 14.8027 448.933 14.392C449.455 13.944 450.277 13.72 451.397 13.72C452.442 13.72 453.189 13.888 453.637 14.224C454.085 14.5227 454.365 14.952 454.477 15.512C454.589 16.0347 454.645 16.632 454.645 17.304V37.8C454.645 38.4347 454.589 39.0133 454.477 39.536C454.365 40.0587 454.066 40.4693 453.581 40.768C453.133 41.0667 452.386 41.216 451.341 41.216ZM441.037 34.72C442.306 34.72 443.445 34.4027 444.453 33.768C445.461 33.1333 446.263 32.2747 446.861 31.192C447.495 30.072 447.813 28.84 447.813 27.496C447.813 26.04 447.495 24.7707 446.861 23.688C446.226 22.6053 445.386 21.7653 444.341 21.168C443.333 20.5333 442.194 20.216 440.925 20.216C439.543 20.216 438.311 20.552 437.229 21.224C436.146 21.8587 435.287 22.736 434.653 23.856C434.055 24.9387 433.757 26.1707 433.757 27.552C433.757 28.896 434.074 30.1093 434.709 31.192C435.343 32.2747 436.202 33.1333 437.285 33.768C438.405 34.4027 439.655 34.72 441.037 34.72ZM464.128 41.328C463.12 41.328 462.373 41.16 461.888 40.824C461.44 40.5253 461.16 40.1147 461.048 39.592C460.936 39.0693 460.88 38.4907 460.88 37.856V17.08C460.88 16.408 460.936 15.8293 461.048 15.344C461.16 14.8213 461.44 14.4293 461.888 14.168C462.373 13.8693 463.138 13.72 464.184 13.72C465.192 13.72 465.92 13.8507 466.368 14.112C466.853 14.3733 467.152 14.7093 467.264 15.12C467.413 15.4933 467.488 15.8667 467.488 16.24L467.04 17.248C467.226 16.9493 467.488 16.5947 467.824 16.184C468.16 15.736 468.608 15.3067 469.168 14.896C469.728 14.448 470.4 14.0933 471.184 13.832C471.968 13.5333 472.901 13.384 473.984 13.384C474.432 13.384 474.898 13.44 475.384 13.552C475.906 13.6267 476.41 13.7573 476.896 13.944C477.418 14.0933 477.885 14.2987 478.296 14.56C478.706 14.8213 479.024 15.1387 479.248 15.512C479.472 15.848 479.584 16.24 479.584 16.688C479.584 17.8827 479.285 18.8907 478.688 19.712C478.09 20.5333 477.381 20.944 476.56 20.944C476 20.944 475.589 20.888 475.328 20.776C475.066 20.664 474.842 20.5333 474.656 20.384C474.506 20.2347 474.264 20.104 473.928 19.992C473.629 19.88 473.144 19.824 472.472 19.824C471.912 19.824 471.333 19.9173 470.736 20.104C470.176 20.2907 469.653 20.5707 469.168 20.944C468.682 21.3173 468.29 21.8027 467.992 22.4C467.693 22.96 467.544 23.6133 467.544 24.36V37.968C467.544 38.6027 467.488 39.1813 467.376 39.704C467.264 40.1893 466.965 40.5813 466.48 40.88C465.994 41.1787 465.21 41.328 464.128 41.328ZM494.802 41.272C493.085 41.272 491.461 40.9173 489.93 40.208C488.4 39.4987 487.056 38.528 485.898 37.296C484.741 36.0267 483.826 34.552 483.154 32.872C482.482 31.1547 482.146 29.3253 482.146 27.384C482.146 25.5173 482.482 23.7627 483.154 22.12C483.826 20.44 484.741 18.984 485.898 17.752C487.093 16.4827 488.456 15.4933 489.986 14.784C491.517 14.0747 493.122 13.72 494.802 13.72C496.594 13.72 498.2 14.0747 499.618 14.784C501.037 15.4933 502.232 16.4827 503.202 17.752C504.21 18.984 504.976 20.44 505.498 22.12C506.021 23.7627 506.301 25.536 506.338 27.44C506.338 29.344 506.077 31.136 505.554 32.816C505.069 34.4587 504.322 35.9147 503.314 37.184C502.344 38.4533 501.13 39.4613 499.674 40.208C498.256 40.9173 496.632 41.272 494.802 41.272ZM495.698 34.72C497.005 34.72 498.162 34.4213 499.17 33.824C500.216 33.1893 501.037 32.3307 501.634 31.248C502.269 30.1653 502.586 28.9333 502.586 27.552C502.586 26.1333 502.269 24.8827 501.634 23.8C501.037 22.7173 500.216 21.8587 499.17 21.224C498.162 20.5893 497.005 20.272 495.698 20.272C494.392 20.272 493.216 20.5893 492.17 21.224C491.125 21.8213 490.285 22.68 489.65 23.8C489.053 24.8827 488.754 26.1333 488.754 27.552C488.754 28.9333 489.053 30.1653 489.65 31.248C490.285 32.3307 491.125 33.1893 492.17 33.824C493.253 34.4213 494.429 34.72 495.698 34.72ZM506.058 41.272C505.013 41.272 504.248 41.104 503.762 40.768C503.277 40.3947 502.96 39.816 502.81 39.032V4.536C502.81 3.90134 502.848 3.34134 502.922 2.856C503.034 2.33334 503.314 1.92267 503.762 1.624C504.248 1.288 504.994 1.12001 506.002 1.12001C507.085 1.12001 507.85 1.26934 508.298 1.568C508.746 1.86667 509.026 2.27734 509.138 2.8C509.288 3.28534 509.362 3.84534 509.362 4.48001V37.856C509.362 38.4907 509.306 39.0693 509.194 39.592C509.082 40.1147 508.784 40.5253 508.298 40.824C507.85 41.1227 507.104 41.272 506.058 41.272Z" fill="url(#paint0_linear_1_4)"/>
<defs>
<linearGradient id="paint0_linear_1_4" x1="-0.84" y1="19.768" x2="513.16" y2="19.768" gradientUnits="userSpaceOnUse">
<stop stop-color="#4F46E5"/>
<stop offset="0.5" stop-color="#6640E9"/>
<stop offset="1" stop-color="#9333EA"/>
</linearGradient>
</defs>
</svg>
