<svg width="182" height="20" viewBox="0 0 182 20" fill="none" xmlns="http://www.w3.org/2000/svg">
<path d="M10.68 0.719997C10.9333 0.719997 11.1733 0.739997 11.4 0.779997C11.6267 0.819997 11.8133 0.946663 11.96 1.16C12.12 1.37333 12.2 1.74 12.2 2.26C12.2 2.76666 12.12 3.13333 11.96 3.36C11.8133 3.57333 11.62 3.7 11.38 3.74C11.1533 3.78 10.9133 3.8 10.66 3.8H7.9V12.96C7.9 13.2533 7.87333 13.54 7.82 13.82C7.76667 14.0867 7.61333 14.3067 7.36 14.48C7.12 14.6533 6.69333 14.74 6.08 14.74C5.49333 14.74 5.07333 14.6533 4.82 14.48C4.56667 14.2933 4.41333 14.0667 4.36 13.8C4.32 13.52 4.3 13.2333 4.3 12.94V3.8H1.52C1.28 3.8 1.04 3.78 0.800001 3.74C0.573334 3.68666 0.380001 3.55333 0.220001 3.34C0.0733341 3.12666 7.7486e-07 2.76 7.7486e-07 2.24C7.7486e-07 1.73333 0.0733341 1.37333 0.220001 1.16C0.380001 0.946663 0.580001 0.819997 0.820001 0.779997C1.06 0.739997 1.3 0.719997 1.54 0.719997H10.68ZM15.053 14.74C14.453 14.74 14.0263 14.6533 13.773 14.48C13.5196 14.2933 13.3663 14.06 13.313 13.78C13.273 13.5 13.253 13.2133 13.253 12.92V1.8C13.253 1.49333 13.2796 1.20666 13.333 0.939996C13.3863 0.659997 13.5396 0.43333 13.793 0.259997C14.0463 0.0866634 14.473 -3.33786e-06 15.073 -3.33786e-06C15.673 -3.33786e-06 16.093 0.09333 16.333 0.279997C16.5863 0.45333 16.7396 0.679997 16.793 0.959997C16.8463 1.22666 16.873 1.51333 16.873 1.82V5.46C17.073 5.27333 17.3396 5.08666 17.673 4.9C18.0196 4.7 18.4196 4.6 18.873 4.6C19.7263 4.6 20.493 4.82666 21.173 5.28C21.853 5.72 22.393 6.32 22.793 7.08C23.193 7.84 23.393 8.7 23.393 9.66V12.94C23.393 13.2333 23.3663 13.52 23.313 13.8C23.2596 14.0667 23.1063 14.2933 22.853 14.48C22.613 14.6533 22.1863 14.74 21.573 14.74C20.9863 14.74 20.5596 14.6533 20.293 14.48C20.0396 14.3067 19.8863 14.08 19.833 13.8C19.7796 13.52 19.753 13.22 19.753 12.9V9.64C19.753 9.34666 19.6996 9.1 19.593 8.9C19.4863 8.68666 19.333 8.52 19.133 8.4C18.933 8.28 18.693 8.22 18.413 8.22C18.053 8.22 17.7196 8.33333 17.413 8.56C17.1063 8.78666 16.9263 9.04666 16.873 9.34V12.94C16.873 13.2333 16.8463 13.52 16.793 13.8C16.7396 14.08 16.5863 14.3067 16.333 14.48C16.093 14.6533 15.6663 14.74 15.053 14.74ZM29.9225 14.96C28.9225 14.96 28.0758 14.8 27.3825 14.48C26.6892 14.1467 26.1292 13.72 25.7025 13.2C25.2758 12.6667 24.9625 12.0933 24.7625 11.48C24.5625 10.8667 24.4625 10.2733 24.4625 9.7C24.4625 8.64666 24.6958 7.72 25.1625 6.92C25.6292 6.12 26.2758 5.49333 27.1025 5.04C27.9292 4.58666 28.8758 4.36 29.9425 4.36C30.7692 4.36 31.4758 4.49333 32.0625 4.76C32.6492 5.02666 33.1225 5.36666 33.4825 5.78C33.8558 6.19333 34.1292 6.63333 34.3025 7.1C34.4758 7.56666 34.5625 8 34.5625 8.4C34.5625 9.16 34.3758 9.74 34.0025 10.14C33.6292 10.54 33.1492 10.74 32.5625 10.74H28.3025C28.3558 10.9533 28.4625 11.14 28.6225 11.3C28.7958 11.4467 29.0092 11.5667 29.2625 11.66C29.5158 11.74 29.7892 11.78 30.0825 11.78C30.3758 11.78 30.6358 11.7667 30.8625 11.74C31.0892 11.7 31.2825 11.6533 31.4425 11.6C31.6158 11.5467 31.7692 11.4933 31.9025 11.44C32.0492 11.3867 32.1758 11.3467 32.2825 11.32C32.4025 11.28 32.5158 11.26 32.6225 11.26C32.8625 11.26 33.0825 11.34 33.2825 11.5C33.4825 11.66 33.6625 11.9 33.8225 12.22C33.9158 12.3933 33.9825 12.56 34.0225 12.72C34.0625 12.8667 34.0825 13.0067 34.0825 13.14C34.0825 13.54 33.9158 13.8733 33.5825 14.14C33.2625 14.4067 32.7958 14.6067 32.1825 14.74C31.5692 14.8867 30.8158 14.96 29.9225 14.96ZM28.3025 8.86H30.5425C30.7292 8.86 30.8625 8.82 30.9425 8.74C31.0358 8.66 31.0825 8.54 31.0825 8.38C31.0825 8.20666 31.0292 8.06 30.9225 7.94C30.8292 7.82 30.6958 7.73333 30.5225 7.68C30.3492 7.61333 30.1425 7.58 29.9025 7.58C29.5825 7.58 29.3025 7.64666 29.0625 7.78C28.8225 7.9 28.6358 8.06 28.5025 8.26C28.3825 8.44666 28.3158 8.64666 28.3025 8.86ZM37.4656 14.74C36.8656 14.74 36.439 14.6533 36.1856 14.48C35.9323 14.2933 35.779 14.06 35.7256 13.78C35.6856 13.4867 35.6656 13.1933 35.6656 12.9V6.38C35.6656 6.07333 35.6923 5.78666 35.7456 5.52C35.799 5.24 35.9523 5.01333 36.2056 4.84C36.459 4.66666 36.8856 4.58 37.4856 4.58C38.0723 4.58 38.4856 4.66 38.7256 4.82C38.979 4.98 39.1323 5.16 39.1856 5.36C39.239 5.54666 39.2656 5.69333 39.2656 5.8L38.9456 5.68C38.9456 5.68 38.999 5.62 39.1056 5.5C39.2123 5.38 39.3656 5.24 39.5656 5.08C39.779 4.92 40.0256 4.78 40.3056 4.66C40.599 4.54 40.9256 4.48 41.2856 4.48C41.4056 4.48 41.5523 4.49333 41.7256 4.52C41.9123 4.53333 42.1056 4.56666 42.3056 4.62C42.519 4.67333 42.7123 4.75333 42.8856 4.86C43.0723 4.96666 43.219 5.10666 43.3256 5.28C43.4456 5.45333 43.5056 5.66666 43.5056 5.92C43.5056 6.58666 43.359 7.15333 43.0656 7.62C42.7856 8.08666 42.4123 8.32 41.9456 8.32C41.6923 8.32 41.5123 8.30666 41.4056 8.28C41.299 8.24 41.219 8.20666 41.1656 8.18C41.1256 8.14 41.0723 8.10666 41.0056 8.08C40.9523 8.04 40.8456 8.02 40.6856 8.02C40.4856 8.02 40.299 8.04666 40.1256 8.1C39.9656 8.14 39.819 8.20666 39.6856 8.3C39.5656 8.39333 39.4723 8.50666 39.4056 8.64C39.339 8.76 39.3056 8.89333 39.3056 9.04V12.94C39.3056 13.2333 39.279 13.52 39.2256 13.8C39.1723 14.08 39.019 14.3067 38.7656 14.48C38.5123 14.6533 38.079 14.74 37.4656 14.74ZM52.013 14.7C51.413 14.7 50.9663 14.6 50.673 14.4C50.393 14.2 50.2596 13.9733 50.273 13.72H50.553C50.4863 13.8133 50.353 13.94 50.153 14.1C49.9663 14.2467 49.713 14.3867 49.393 14.52C49.073 14.64 48.6796 14.7 48.213 14.7C47.613 14.7 47.033 14.5667 46.473 14.3C45.9263 14.02 45.433 13.64 44.993 13.16C44.5663 12.68 44.2263 12.14 43.973 11.54C43.7196 10.9267 43.593 10.2867 43.593 9.62C43.593 8.96666 43.7196 8.34 43.973 7.74C44.2263 7.14 44.573 6.60666 45.013 6.14C45.453 5.66 45.9463 5.28666 46.493 5.02C47.0396 4.74 47.613 4.6 48.213 4.6C48.6663 4.6 49.0463 4.66666 49.353 4.8C49.673 4.93333 49.9263 5.08 50.113 5.24C50.313 5.4 50.4463 5.53333 50.513 5.64H50.293C50.2796 5.30666 50.413 5.04666 50.693 4.86C50.9863 4.67333 51.433 4.58 52.033 4.58C52.633 4.58 53.053 4.67333 53.293 4.86C53.5463 5.03333 53.6996 5.26 53.753 5.54C53.8063 5.82 53.833 6.10666 53.833 6.4V12.9C53.833 13.1933 53.8063 13.48 53.753 13.76C53.6996 14.04 53.5463 14.2667 53.293 14.44C53.053 14.6133 52.6263 14.7 52.013 14.7ZM48.713 11.08C48.9663 11.08 49.193 11.0133 49.393 10.88C49.6063 10.7467 49.773 10.5733 49.893 10.36C50.0263 10.1333 50.093 9.89333 50.093 9.64C50.093 9.37333 50.0263 9.13333 49.893 8.92C49.773 8.70666 49.6063 8.53333 49.393 8.4C49.1796 8.26666 48.9396 8.2 48.673 8.2C48.4063 8.2 48.1596 8.26666 47.933 8.4C47.7196 8.53333 47.5463 8.71333 47.413 8.94C47.2796 9.15333 47.213 9.39333 47.213 9.66C47.213 9.91333 47.2796 10.1467 47.413 10.36C47.5596 10.5733 47.7463 10.7467 47.973 10.88C48.1996 11.0133 48.4463 11.08 48.713 11.08ZM60.6258 14.5C59.9724 14.5 59.4058 14.3667 58.9258 14.1C58.4458 13.8333 58.0524 13.4733 57.7458 13.02C57.4391 12.5533 57.2124 12.0267 57.0658 11.44C56.9191 10.8533 56.8524 10.2333 56.8658 9.58C56.8791 8.94 56.9591 8.32 57.1058 7.72C57.2658 7.12 57.4991 6.58666 57.8058 6.12C58.1124 5.65333 58.4991 5.28666 58.9658 5.02C59.4324 4.74 59.9858 4.6 60.6258 4.6C61.2124 4.6 61.7791 4.74 62.3258 5.02C62.8858 5.3 63.3858 5.68 63.8258 6.16C64.2658 6.62666 64.6124 7.16 64.8658 7.76C65.1191 8.36 65.2458 8.98 65.2458 9.62C65.2458 10.2867 65.1191 10.92 64.8658 11.52C64.6124 12.1067 64.2658 12.6267 63.8258 13.08C63.3991 13.52 62.9058 13.8667 62.3458 14.12C61.7991 14.3733 61.2258 14.5 60.6258 14.5ZM56.9258 18.98C56.3391 18.98 55.9191 18.8933 55.6658 18.72C55.4124 18.5467 55.2591 18.3267 55.2058 18.06C55.1658 17.7933 55.1458 17.5133 55.1458 17.22V6.36C55.1458 6.06666 55.1658 5.78666 55.2058 5.52C55.2591 5.25333 55.4058 5.03333 55.6458 4.86C55.8991 4.67333 56.3191 4.58 56.9058 4.58C57.3724 4.58 57.7591 4.64666 58.0658 4.78C58.3724 4.9 58.5924 5.09333 58.7258 5.36V17.2C58.7524 17.4933 58.7324 17.7733 58.6658 18.04C58.6124 18.32 58.4591 18.5467 58.2058 18.72C57.9524 18.8933 57.5258 18.98 56.9258 18.98ZM60.1458 11.1C60.4124 11.1 60.6524 11.0333 60.8658 10.9C61.0924 10.7667 61.2724 10.5933 61.4058 10.38C61.5391 10.1533 61.6058 9.91333 61.6058 9.66C61.6058 9.39333 61.5391 9.15333 61.4058 8.94C61.2858 8.71333 61.1124 8.54 60.8858 8.42C60.6724 8.28666 60.4324 8.22 60.1658 8.22C59.8991 8.22 59.6524 8.28666 59.4258 8.42C59.2124 8.55333 59.0391 8.72666 58.9058 8.94C58.7858 9.15333 58.7258 9.39333 58.7258 9.66C58.7258 9.91333 58.7924 10.1533 58.9258 10.38C59.0591 10.5933 59.2324 10.7667 59.4458 10.9C59.6591 11.0333 59.8924 11.1 60.1458 11.1ZM68.8206 18.84C68.1673 18.5467 67.7873 18.22 67.6806 17.86C67.574 17.5133 67.6606 17.0533 67.9406 16.48L72.8006 5.6C73.0806 4.97333 73.3806 4.6 73.7006 4.48C74.0206 4.36 74.514 4.43333 75.1806 4.7C75.8206 4.99333 76.194 5.30666 76.3006 5.64C76.4206 5.97333 76.354 6.42 76.1006 6.98L71.2006 17.96C70.934 18.5867 70.634 18.96 70.3006 19.08C69.9806 19.2133 69.4873 19.1333 68.8206 18.84ZM70.4406 14.44L65.6806 7.24C65.334 6.70666 65.194 6.26666 65.2606 5.92C65.3273 5.56 65.6473 5.2 66.2206 4.84C66.8473 4.45333 67.3273 4.30666 67.6606 4.4C68.0073 4.48 68.3606 4.79333 68.7206 5.34L71.9606 10.24L70.4406 14.44ZM84.3022 14.74C83.9555 14.74 83.6955 14.68 83.5222 14.56C83.3489 14.4533 83.2355 14.3067 83.1822 14.12C83.1289 13.9333 83.1022 13.7333 83.1022 13.52V1.96C83.1022 1.74666 83.1222 1.55333 83.1622 1.38C83.2155 1.19333 83.3289 1.04666 83.5022 0.939996C83.6755 0.819996 83.9489 0.759996 84.3222 0.759996L88.0822 0.779997C89.0555 0.779997 89.9489 0.946664 90.7622 1.28C91.5889 1.61333 92.3022 2.08666 92.9022 2.7C93.5022 3.31333 93.9622 4.04666 94.2822 4.9C94.6155 5.74 94.7822 6.66666 94.7822 7.68C94.7822 8.72 94.6155 9.67333 94.2822 10.54C93.9489 11.4067 93.4822 12.1533 92.8822 12.78C92.2822 13.4067 91.5689 13.8933 90.7422 14.24C89.9289 14.5733 89.0222 14.74 88.0222 14.74H84.3022ZM85.5222 12.32H88.0822C88.9355 12.32 89.6822 12.1333 90.3222 11.76C90.9622 11.3733 91.4555 10.84 91.8022 10.16C92.1622 9.48 92.3422 8.68666 92.3422 7.78C92.3422 6.86 92.1622 6.06 91.8022 5.38C91.4555 4.68666 90.9555 4.15333 90.3022 3.78C89.6622 3.39333 88.9155 3.2 88.0622 3.2H85.5222V12.32ZM105.076 14.72C104.689 14.72 104.403 14.6467 104.216 14.5C104.029 14.3533 103.936 14.1533 103.936 13.9L104.076 13.24C103.969 13.4133 103.789 13.62 103.536 13.86C103.283 14.0867 102.949 14.2933 102.536 14.48C102.123 14.6533 101.623 14.74 101.036 14.74C100.409 14.74 99.8159 14.6133 99.2559 14.36C98.7093 14.0933 98.2226 13.7333 97.7959 13.28C97.3826 12.8133 97.0493 12.2867 96.7959 11.7C96.5559 11.1 96.4359 10.46 96.4359 9.78C96.4359 9.12666 96.5559 8.51333 96.7959 7.94C97.0493 7.35333 97.3893 6.83333 97.8159 6.38C98.2426 5.92666 98.7293 5.57333 99.2759 5.32C99.8359 5.05333 100.423 4.92 101.036 4.92C101.583 4.92 102.043 4.99333 102.416 5.14C102.803 5.28666 103.129 5.47333 103.396 5.7C103.663 5.91333 103.883 6.14 104.056 6.38L103.936 5.8C103.936 5.50666 104.029 5.28666 104.216 5.14C104.403 4.98 104.696 4.9 105.096 4.9C105.469 4.9 105.736 4.96 105.896 5.08C106.056 5.18666 106.156 5.34 106.196 5.54C106.236 5.72666 106.256 5.94 106.256 6.18V13.5C106.256 13.7267 106.236 13.9333 106.196 14.12C106.156 14.3067 106.049 14.4533 105.876 14.56C105.716 14.6667 105.449 14.72 105.076 14.72ZM101.396 12.4C101.849 12.4 102.256 12.2867 102.616 12.06C102.976 11.8333 103.263 11.5267 103.476 11.14C103.703 10.74 103.816 10.3 103.816 9.82C103.816 9.3 103.703 8.84666 103.476 8.46C103.249 8.07333 102.949 7.77333 102.576 7.56C102.216 7.33333 101.809 7.22 101.356 7.22C100.863 7.22 100.423 7.34 100.036 7.58C99.6493 7.80666 99.3426 8.12 99.1159 8.52C98.9026 8.90666 98.7959 9.34666 98.7959 9.84C98.7959 10.32 98.9093 10.7533 99.1359 11.14C99.3626 11.5267 99.6693 11.8333 100.056 12.06C100.456 12.2867 100.903 12.4 101.396 12.4ZM111.883 14.88C111.536 14.88 111.169 14.84 110.783 14.76C110.396 14.6933 110.023 14.5933 109.663 14.46C109.303 14.3133 108.989 14.1467 108.723 13.96C108.469 13.76 108.309 13.54 108.243 13.3C108.189 13.1667 108.169 13.04 108.183 12.92C108.196 12.7867 108.236 12.6533 108.303 12.52C108.369 12.3733 108.469 12.2267 108.603 12.08C108.723 11.9333 108.843 11.8533 108.963 11.84C109.096 11.8133 109.263 11.8533 109.463 11.96C109.636 12.0267 109.823 12.1133 110.023 12.22C110.236 12.3267 110.449 12.4333 110.663 12.54C110.889 12.6467 111.116 12.7333 111.343 12.8C111.583 12.8667 111.816 12.9 112.043 12.9C112.536 12.9 112.929 12.82 113.223 12.66C113.516 12.4867 113.663 12.2467 113.663 11.94C113.663 11.7667 113.616 11.6133 113.523 11.48C113.429 11.3467 113.303 11.24 113.143 11.16C112.996 11.0667 112.816 10.9867 112.603 10.92C112.403 10.84 112.183 10.7733 111.943 10.72C111.716 10.6533 111.476 10.58 111.223 10.5C110.889 10.4067 110.556 10.2933 110.223 10.16C109.889 10.0267 109.589 9.85333 109.323 9.64C109.069 9.42666 108.863 9.16 108.703 8.84C108.543 8.52 108.463 8.12 108.463 7.64C108.463 7.04 108.603 6.53333 108.883 6.12C109.176 5.69333 109.596 5.36666 110.143 5.14C110.689 4.91333 111.349 4.8 112.123 4.8C112.389 4.8 112.643 4.82 112.883 4.86C113.136 4.9 113.376 4.96 113.603 5.04C113.843 5.10666 114.069 5.19333 114.283 5.3C114.509 5.40666 114.723 5.52666 114.923 5.66C115.256 5.84666 115.429 6.06666 115.443 6.32C115.456 6.56 115.363 6.82 115.163 7.1C115.016 7.28666 114.869 7.42 114.723 7.5C114.576 7.56666 114.423 7.56666 114.263 7.5C114.049 7.39333 113.816 7.28 113.563 7.16C113.323 7.02666 113.069 6.91333 112.803 6.82C112.549 6.72666 112.283 6.68 112.003 6.68C111.736 6.68 111.496 6.72 111.283 6.8C111.069 6.88 110.909 6.99333 110.803 7.14C110.696 7.28666 110.643 7.46 110.643 7.66C110.643 7.84666 110.696 8 110.803 8.12C110.909 8.24 111.049 8.34 111.223 8.42C111.396 8.5 111.603 8.57333 111.843 8.64C112.083 8.69333 112.336 8.74666 112.603 8.8C112.976 8.88 113.356 8.98 113.743 9.1C114.129 9.22 114.483 9.38666 114.803 9.6C115.136 9.81333 115.403 10.1 115.603 10.46C115.803 10.8067 115.903 11.26 115.903 11.82C115.903 12.7933 115.543 13.5467 114.823 14.08C114.116 14.6133 113.136 14.88 111.883 14.88ZM118.922 14.76C118.549 14.76 118.276 14.7 118.102 14.58C117.942 14.4733 117.842 14.3267 117.802 14.14C117.762 13.9533 117.742 13.7533 117.742 13.54V1.6C117.742 1.37333 117.762 1.17333 117.802 0.999997C117.856 0.81333 117.962 0.666663 118.122 0.559997C118.296 0.453331 118.569 0.399997 118.942 0.399997C119.316 0.399997 119.582 0.459997 119.742 0.579996C119.916 0.686663 120.022 0.83333 120.062 1.02C120.116 1.19333 120.142 1.39333 120.142 1.62V6.14C120.409 5.83333 120.749 5.55333 121.162 5.3C121.589 5.03333 122.102 4.9 122.702 4.9C123.516 4.9 124.242 5.1 124.882 5.5C125.522 5.88666 126.029 6.42666 126.402 7.12C126.776 7.81333 126.962 8.62666 126.962 9.56V13.56C126.962 13.7733 126.942 13.9733 126.902 14.16C126.862 14.3333 126.756 14.4733 126.582 14.58C126.422 14.6867 126.156 14.74 125.782 14.74C125.409 14.74 125.136 14.6867 124.962 14.58C124.789 14.4733 124.682 14.3333 124.642 14.16C124.602 13.9733 124.582 13.76 124.582 13.52V9.54C124.582 9.07333 124.502 8.66666 124.342 8.32C124.182 7.97333 123.942 7.70666 123.622 7.52C123.316 7.32 122.929 7.22 122.462 7.22C121.836 7.22 121.309 7.40666 120.882 7.78C120.456 8.14 120.209 8.60666 120.142 9.18V13.56C120.142 13.7733 120.116 13.9733 120.062 14.16C120.022 14.3467 119.916 14.4933 119.742 14.6C119.582 14.7067 119.309 14.76 118.922 14.76ZM130.021 14.74C129.674 14.74 129.414 14.68 129.241 14.56C129.067 14.44 128.954 14.28 128.901 14.08C128.861 13.88 128.841 13.66 128.841 13.42V2.06C128.841 1.82 128.867 1.60666 128.921 1.42C128.974 1.22 129.081 1.06 129.241 0.939996C129.414 0.819996 129.681 0.759996 130.041 0.759996H135.321C136.094 0.759996 136.774 0.939996 137.361 1.3C137.961 1.66 138.427 2.14 138.761 2.74C139.094 3.32666 139.261 3.97333 139.261 4.68C139.261 5 139.221 5.32 139.141 5.64C139.074 5.94666 138.961 6.23333 138.801 6.5C138.654 6.76666 138.467 7.00666 138.241 7.22C138.547 7.46 138.814 7.75333 139.041 8.1C139.267 8.44666 139.434 8.82666 139.541 9.24C139.661 9.64 139.721 10.06 139.721 10.5C139.707 11.1 139.594 11.66 139.381 12.18C139.167 12.6867 138.867 13.1333 138.481 13.52C138.107 13.9067 137.667 14.2067 137.161 14.42C136.654 14.6333 136.107 14.74 135.521 14.74H130.021ZM131.261 12.38H135.321C135.707 12.38 136.047 12.3067 136.341 12.16C136.647 12.0133 136.887 11.7867 137.061 11.48C137.234 11.1733 137.321 10.7733 137.321 10.28C137.321 9.89333 137.267 9.58666 137.161 9.36C137.067 9.12 136.934 8.93333 136.761 8.8C136.601 8.66666 136.414 8.57333 136.201 8.52C136.001 8.46666 135.801 8.44 135.601 8.44C135.401 8.42666 135.214 8.42 135.041 8.42H134.121C133.774 8.42 133.521 8.34 133.361 8.18C133.201 8.00666 133.121 7.72666 133.121 7.34C133.121 6.98 133.207 6.72666 133.381 6.58C133.554 6.42 133.821 6.34 134.181 6.34H135.081C135.254 6.34 135.441 6.33333 135.641 6.32C135.854 6.30666 136.054 6.26 136.241 6.18C136.427 6.08666 136.581 5.94 136.701 5.74C136.821 5.54 136.881 5.24666 136.881 4.86C136.881 4.26 136.721 3.82666 136.401 3.56C136.094 3.28 135.561 3.14 134.801 3.14H131.261V12.38ZM146.221 14.88C145.581 14.88 144.955 14.76 144.341 14.52C143.741 14.2667 143.195 13.9133 142.701 13.46C142.221 13.0067 141.835 12.4733 141.541 11.86C141.261 11.2467 141.121 10.5733 141.121 9.84C141.121 9.13333 141.255 8.47333 141.521 7.86C141.788 7.24666 142.155 6.70666 142.621 6.24C143.088 5.77333 143.621 5.41333 144.221 5.16C144.835 4.89333 145.488 4.76 146.181 4.76C147.115 4.76 147.961 4.98666 148.721 5.44C149.481 5.88 150.088 6.48 150.541 7.24C150.995 8 151.221 8.86 151.221 9.82C151.221 10.58 151.081 11.2733 150.801 11.9C150.521 12.5133 150.141 13.0467 149.661 13.5C149.181 13.94 148.641 14.28 148.041 14.52C147.455 14.76 146.848 14.88 146.221 14.88ZM146.181 12.52C146.621 12.52 147.041 12.4133 147.441 12.2C147.855 11.9733 148.188 11.6533 148.441 11.24C148.708 10.8267 148.841 10.34 148.841 9.78C148.841 9.26 148.721 8.8 148.481 8.4C148.255 8 147.941 7.68666 147.541 7.46C147.141 7.23333 146.681 7.12 146.161 7.12C145.668 7.12 145.221 7.24 144.821 7.48C144.421 7.70666 144.101 8.02666 143.861 8.44C143.635 8.84 143.521 9.29333 143.521 9.8C143.521 10.36 143.648 10.8467 143.901 11.26C144.155 11.66 144.481 11.9733 144.881 12.2C145.295 12.4133 145.728 12.52 146.181 12.52ZM161.193 14.72C160.806 14.72 160.52 14.6467 160.333 14.5C160.146 14.3533 160.053 14.1533 160.053 13.9L160.193 13.24C160.086 13.4133 159.906 13.62 159.653 13.86C159.4 14.0867 159.066 14.2933 158.653 14.48C158.24 14.6533 157.74 14.74 157.153 14.74C156.526 14.74 155.933 14.6133 155.373 14.36C154.826 14.0933 154.34 13.7333 153.913 13.28C153.5 12.8133 153.166 12.2867 152.913 11.7C152.673 11.1 152.553 10.46 152.553 9.78C152.553 9.12666 152.673 8.51333 152.913 7.94C153.166 7.35333 153.506 6.83333 153.933 6.38C154.36 5.92666 154.846 5.57333 155.393 5.32C155.953 5.05333 156.54 4.92 157.153 4.92C157.7 4.92 158.16 4.99333 158.533 5.14C158.92 5.28666 159.246 5.47333 159.513 5.7C159.78 5.91333 160 6.14 160.173 6.38L160.053 5.8C160.053 5.50666 160.146 5.28666 160.333 5.14C160.52 4.98 160.813 4.9 161.213 4.9C161.586 4.9 161.853 4.96 162.013 5.08C162.173 5.18666 162.273 5.34 162.313 5.54C162.353 5.72666 162.373 5.94 162.373 6.18V13.5C162.373 13.7267 162.353 13.9333 162.313 14.12C162.273 14.3067 162.166 14.4533 161.993 14.56C161.833 14.6667 161.566 14.72 161.193 14.72ZM157.513 12.4C157.966 12.4 158.373 12.2867 158.733 12.06C159.093 11.8333 159.38 11.5267 159.593 11.14C159.82 10.74 159.933 10.3 159.933 9.82C159.933 9.3 159.82 8.84666 159.593 8.46C159.366 8.07333 159.066 7.77333 158.693 7.56C158.333 7.33333 157.926 7.22 157.473 7.22C156.98 7.22 156.54 7.34 156.153 7.58C155.766 7.80666 155.46 8.12 155.233 8.52C155.02 8.90666 154.913 9.34666 154.913 9.84C154.913 10.32 155.026 10.7533 155.253 11.14C155.48 11.5267 155.786 11.8333 156.173 12.06C156.573 12.2867 157.02 12.4 157.513 12.4ZM165.76 14.76C165.4 14.76 165.133 14.7 164.96 14.58C164.8 14.4733 164.7 14.3267 164.66 14.14C164.62 13.9533 164.6 13.7467 164.6 13.52V6.1C164.6 5.86 164.62 5.65333 164.66 5.48C164.7 5.29333 164.8 5.15333 164.96 5.06C165.133 4.95333 165.407 4.9 165.78 4.9C166.14 4.9 166.4 4.94666 166.56 5.04C166.733 5.13333 166.84 5.25333 166.88 5.4C166.933 5.53333 166.96 5.66666 166.96 5.8L166.8 6.16C166.867 6.05333 166.96 5.92666 167.08 5.78C167.2 5.62 167.36 5.46666 167.56 5.32C167.76 5.16 168 5.03333 168.28 4.94C168.56 4.83333 168.893 4.78 169.28 4.78C169.44 4.78 169.607 4.8 169.78 4.84C169.967 4.86666 170.147 4.91333 170.32 4.98C170.507 5.03333 170.673 5.10666 170.82 5.2C170.967 5.29333 171.08 5.40666 171.16 5.54C171.24 5.66 171.28 5.8 171.28 5.96C171.28 6.38666 171.173 6.74666 170.96 7.04C170.747 7.33333 170.493 7.48 170.2 7.48C170 7.48 169.853 7.46 169.76 7.42C169.667 7.38 169.587 7.33333 169.52 7.28C169.467 7.22666 169.38 7.18 169.26 7.14C169.153 7.1 168.98 7.08 168.74 7.08C168.54 7.08 168.333 7.11333 168.12 7.18C167.92 7.24666 167.733 7.34666 167.56 7.48C167.387 7.61333 167.247 7.78666 167.14 8C167.033 8.2 166.98 8.43333 166.98 8.7V13.56C166.98 13.7867 166.96 13.9933 166.92 14.18C166.88 14.3533 166.773 14.4933 166.6 14.6C166.427 14.7067 166.147 14.76 165.76 14.76ZM176.715 14.74C176.102 14.74 175.522 14.6133 174.975 14.36C174.428 14.1067 173.948 13.76 173.535 13.32C173.122 12.8667 172.795 12.34 172.555 11.74C172.315 11.1267 172.195 10.4733 172.195 9.78C172.195 9.11333 172.315 8.48666 172.555 7.9C172.795 7.3 173.122 6.78 173.535 6.34C173.962 5.88666 174.448 5.53333 174.995 5.28C175.542 5.02666 176.115 4.9 176.715 4.9C177.355 4.9 177.928 5.02666 178.435 5.28C178.942 5.53333 179.368 5.88666 179.715 6.34C180.075 6.78 180.348 7.3 180.535 7.9C180.722 8.48666 180.822 9.12 180.835 9.8C180.835 10.48 180.742 11.12 180.555 11.72C180.382 12.3067 180.115 12.8267 179.755 13.28C179.408 13.7333 178.975 14.0933 178.455 14.36C177.948 14.6133 177.368 14.74 176.715 14.74ZM177.035 12.4C177.502 12.4 177.915 12.2933 178.275 12.08C178.648 11.8533 178.942 11.5467 179.155 11.16C179.382 10.7733 179.495 10.3333 179.495 9.84C179.495 9.33333 179.382 8.88666 179.155 8.5C178.942 8.11333 178.648 7.80666 178.275 7.58C177.915 7.35333 177.502 7.24 177.035 7.24C176.568 7.24 176.148 7.35333 175.775 7.58C175.402 7.79333 175.102 8.1 174.875 8.5C174.662 8.88666 174.555 9.33333 174.555 9.84C174.555 10.3333 174.662 10.7733 174.875 11.16C175.102 11.5467 175.402 11.8533 175.775 12.08C176.162 12.2933 176.582 12.4 177.035 12.4ZM180.735 14.74C180.362 14.74 180.088 14.68 179.915 14.56C179.742 14.4267 179.628 14.22 179.575 13.94V1.62C179.575 1.39333 179.588 1.19333 179.615 1.02C179.655 0.83333 179.755 0.686663 179.915 0.579996C180.088 0.459997 180.355 0.399997 180.715 0.399997C181.102 0.399997 181.375 0.453331 181.535 0.559997C181.695 0.666663 181.795 0.81333 181.835 0.999997C181.888 1.17333 181.915 1.37333 181.915 1.6V13.52C181.915 13.7467 181.895 13.9533 181.855 14.14C181.815 14.3267 181.708 14.4733 181.535 14.58C181.375 14.6867 181.108 14.74 180.735 14.74Z" fill="url(#paint0_linear_2_2)"/>
<defs>
<linearGradient id="paint0_linear_2_2" x1="-0.299999" y1="7.56" x2="183.7" y2="7.56" gradientUnits="userSpaceOnUse">
<stop stop-color="#4F46E5"/>
<stop offset="0.5" stop-color="#6640E9"/>
<stop offset="1" stop-color="#9333EA"/>
</linearGradient>
</defs>
</svg>
